<?xml version="1.0" standalone="no"?><!DOCTYPE svg PUBLIC "-//W3C//DTD SVG 1.1//EN" "http://www.w3.org/Graphics/SVG/1.1/DTD/svg11.dtd"><svg width="100%" height="100%" viewBox="0 0 31 32" version="1.1" xmlns="http://www.w3.org/2000/svg" xmlns:xlink="http://www.w3.org/1999/xlink" xml:space="preserve" style="fill-rule:evenodd;clip-rule:evenodd;stroke-linejoin:round;stroke-miterlimit:1.41421;"><g><path d="M31.9612,3.08256c0,-1.70245 -1.38011,-3.08256 -3.08256,-3.08256l-25.796,0c-1.70245,0 -3.08256,1.38011 -3.08256,3.08256l0,25.8761c0,1.70245 1.38011,3.08256 3.08256,3.08256l25.796,0c1.70245,0 3.08256,-1.38011 3.08256,-3.08256l0,-25.8761Z" style="fill:#cdcdcd;"/><path d="M11.0001,10.8175l-5.97656,-1.07812c0.671875,-2.40625 1.82812,-4.1875 3.46875,-5.34375c1.64062,-1.15625 4.07812,-1.73438 7.3125,-1.73438c2.9375,0 5.125,0.347656 6.5625,1.04297c1.4375,0.695312 2.44922,1.57812 3.03516,2.64844c0.585938,1.07031 0.878906,3.03516 0.878906,5.89453l-0.0703125,7.6875c0,2.1875 0.105469,3.80078 0.316406,4.83984c0.210938,1.03906 0.605469,2.15234 1.18359,3.33984l-6.51562,0c-0.171875,-0.4375 -0.382812,-1.08594 -0.632812,-1.94531c-0.109375,-0.390625 -0.1875,-0.648438 -0.234375,-0.773438c-1.125,1.09375 -2.32812,1.91406 -3.60938,2.46094c-1.28125,0.546875 -2.64844,0.820312 -4.10156,0.820312c-2.5625,0 -4.58203,-0.695312 -6.05859,-2.08594c-1.47656,-1.39062 -2.21484,-3.14844 -2.21484,-5.27344c0,-1.40625 0.335938,-2.66016 1.00781,-3.76172c0.671875,-1.10156 1.61328,-1.94531 2.82422,-2.53125c1.21094,-0.585938 2.95703,-1.09766 5.23828,-1.53516c3.07812,-0.578125 5.21094,-1.11719 6.39844,-1.61719l0,-0.65625c0,-1.26562 -0.3125,-2.16797 -0.9375,-2.70703c-0.625,-0.539062 -1.80469,-0.808594 -3.53906,-0.808594c-1.17188,0 -2.08594,0.230469 -2.74219,0.691406c-0.65625,0.460938 -1.1875,1.26953 -1.59375,2.42578ZM19.8126,16.1613c-0.84375,0.28125 -2.17969,0.617188 -4.00781,1.00781c-1.82812,0.390625 -3.02344,0.773438 -3.58594,1.14844c-0.859375,0.609375 -1.28906,1.38281 -1.28906,2.32031c0,0.921875 0.34375,1.71875 1.03125,2.39062c0.6875,0.671875 1.5625,1.00781 2.625,1.00781c1.1875,0 2.32031,-0.390625 3.39844,-1.17188c0.796875,-0.59375 1.32031,-1.32031 1.57031,-2.17969c0.171875,-0.5625 0.257812,-1.63281 0.257812,-3.21094l0,-1.3125Z" style="fill:#000;fill-opacity:0.8;fill-rule:nonzero;"/></g></svg>